<svg xmlns="http://www.w3.org/2000/svg" viewBox="0 0 21.167 21.167"><path d="M2.19 0A2.19 2.19 0 0 0 0 2.19V18.98c0 1.206.98 2.186 2.19 2.186H18.98c1.206 0 2.186-.98 2.186-2.186V2.19A2.19 2.19 0 0 0 18.98 0z" fill="none"/><path d="M16.373 5.195c-.174-.866-.728-1.212-1.56-1.558-.833-.349-2.782-.762-4.235-.762-1.456 0-3.404.413-4.237.762-.833.346-1.386.692-1.56 1.558l-.625 4.804v6.618h1.078v1.039c0 1.263 1.853 1.263 1.853 0v-1.039h6.984v1.039c0 1.263 1.849 1.263 1.849 0v-1.039h1.076V10zm-8.7-1.257h5.807c.571 0 .571 1.08 0 1.08H7.674c-.572 0-.572-1.08 0-1.08M6.158 14.631a.977.977 0 1 1 .003-1.954.977.977 0 0 1-.003 1.954m8.838 0a.978.978 0 0 1-.98-.978.976.976 0 1 1 .98.978m.384-4.126H5.787a.515.515 0 0 1-.493-.645l.511-3.788a.512.512 0 0 1 .5-.42h8.554c.25 0 .458.183.503.42l.509 3.788a.514.514 0 0 1-.491.645"/></svg>