<svg xmlns="http://www.w3.org/2000/svg" viewBox="0 0 11 11">
	<path d="M5.5 2.376A3.13 3.13 0 0 0 2.374 5.5a3.129 3.129 0 0 0 3.124 3.125A3.13 3.13 0 0 0 8.625 5.5a3.13 3.13 0 0 0-3.126-3.125zm0 .53A2.592 2.592 0 0 1 8.094 5.5 2.592 2.592 0 0 1 5.5 8.097 2.592 2.592 0 0 1 2.904 5.5a2.592 2.592 0 0 1 2.595-2.596zm-.001.455c-.385 0-.901.109-1.122.201-.22.092-.366.183-.412.412L3.8 5.245v1.751h.285v.275c0 .335.49.335.49 0v-.275h1.848v.275c0 .335.49.335.49 0v-.275h.284v-1.75l-.165-1.272c-.046-.229-.193-.32-.413-.412-.22-.092-.736-.201-1.12-.201zm-.77.28h1.537c.151 0 .151.286 0 .286H4.73c-.15 0-.15-.285 0-.285zm-.36.454H6.63c.066 0 .122.049.133.111L6.9 5.208a.136.136 0 0 1-.13.171H4.231a.136.136 0 0 1-.13-.17l.135-1.003a.135.135 0 0 1 .132-.11zM4.33 5.954a.259.259 0 0 1 0 .517.259.259 0 1 1 0-.517zm2.345 0a.258.258 0 0 1-.007.517.259.259 0 0 1-.26-.259.258.258 0 0 1 .267-.257z" id="icon-path"/>
</svg>