<?xml version="1.0" encoding="UTF-8"?>
<svg width="400.02" height="80.001" version="1.1" viewBox="0 0 4.1669 .83335" xmlns="http://www.w3.org/2000/svg"><g transform="translate(220.36 -283.84)"><g transform="translate(2.4412 -1.0121)"><g transform="matrix(.087886 0 0 -.087886 -220.21 284.86)" fill-opacity="0"><path d="m0 0c-0.542 0-0.981-0.439-0.981-0.98v-7.524c0-0.539 0.439-0.978 0.981-0.978h7.521c0.541 0 0.98 0.439 0.98 0.978v7.524c0 0.541-0.439 0.98-0.98 0.98z" fill-opacity="0"/></g><g><g transform="matrix(.087886 0 0 -.087886 -219.87 285.02)"><path d="m0 0c0.365 0 0.66 0.297 0.66 0.662s-0.295 0.66-0.66 0.66-0.662-0.295-0.662-0.66 0.297-0.662 0.662-0.662"/></g><g transform="matrix(.087886 0 0 -.087886 -219.97 285.03)"><path d="m0 0c0.025 0.102-0.039 0.203-0.139 0.229l-0.551 0.132c-0.103 0.024-0.205-0.037-0.228-0.138l-0.463-1.916c-0.025-0.102 0.037-0.203 0.139-0.229l0.552-0.133c0.1-0.025 0.204 0.037 0.227 0.139z"/></g><g transform="matrix(.087886 0 0 -.087886 -219.75 285.63)"><path d="m0 0c0-4e-3 -2e-3 -8e-3 -2e-3 -0.01 0-0.084 0.068-0.152 0.152-0.152 0.077 0 0.141 0.059 0.151 0.133l1.109 6.017v0.012c0 0.082-0.066 0.15-0.15 0.15-0.076 0-0.135-0.058-0.151-0.132z"/></g><g transform="matrix(.087886 0 0 -.087886 -220.07 285.59)"><path d="m0 0c-6e-3 -0.031-8e-3 -0.062-8e-3 -0.094 0-0.258 0.207-0.465 0.465-0.465 0.211 0 0.389 0.141 0.445 0.332l0.799 3.307 0.762-3.287c0.049-0.203 0.232-0.352 0.449-0.352 0.258 0 0.465 0.207 0.465 0.465 0 0.035-4e-3 0.069-0.01 0.102l-1.045 4.367 0.088 0.385 0.069-0.303c0.062-0.197 0.242-0.217 0.242-0.217l1.076-0.273c0.021-4e-3 0.043-6e-3 0.064-6e-3 0.176 0 0.319 0.141 0.319 0.316 0 0.151-0.104 0.278-0.244 0.311l-0.932 0.234-0.256 1.039c-0.121 0.58-0.676 0.567-0.676 0.567-0.539 0.013-0.674-0.553-0.674-0.553z"/></g></g></g><g transform="translate(1.0792 -1.0722)"><g transform="matrix(.087886 0 0 -.087886 -220.52 284.92)" fill-opacity="0"><path d="m0 0c-0.542 0-0.982-0.441-0.982-0.982v-7.522c0-0.539 0.44-0.978 0.982-0.978h7.522c0.54 0 0.98 0.439 0.98 0.978v7.522c0 0.541-0.44 0.982-0.98 0.982z" fill-opacity="0"/></g><g transform="matrix(.087886 0 0 -.087886 -282.34 311.8)"><path d="m707.55 298.01h-0.525v6.596h0.525z"/><g transform="translate(705.16 303.39)"><path d="m0 0c0.375 0 0.644-0.309 0.7-0.477l0.459-1.511c0.092-0.325-0.321-0.459-0.42-0.143l-0.413 1.387h-0.238l0.692-2.465h-0.66v-1.924c0-0.328-0.493-0.326-0.493 0v1.936h-0.251v-1.932c0-0.332-0.495-0.332-0.495 0v1.92h-0.662l0.685 2.465h-0.227l-0.414-1.391c-0.098-0.303-0.515-0.179-0.42 0.147l0.46 1.511c0.049 0.172 0.266 0.477 0.643 0.477z"/></g><g transform="translate(704.66 303.51)"><path d="m0 0c0.296 0 0.536 0.24 0.536 0.535 0 0.297-0.24 0.537-0.536 0.537s-0.535-0.24-0.535-0.537c0-0.295 0.239-0.535 0.535-0.535"/></g><g transform="translate(709.86 303.52)"><path d="m0 0c0.296 0 0.536 0.238 0.536 0.535 0 0.295-0.24 0.535-0.536 0.535-0.295 0-0.535-0.24-0.535-0.535 0-0.297 0.24-0.535 0.535-0.535"/></g><g transform="translate(709.14 298.32)"><path d="m0 0c0-0.166 0.134-0.301 0.3-0.301s0.301 0.135 0.301 0.301v2.52h0.252v-2.52c0-0.166 0.133-0.301 0.299-0.301s0.3 0.135 0.3 0.301l2e-3 4.344h0.25v-1.602c0-0.322 0.42-0.322 0.419 0v1.637c0 0.355-0.276 0.703-0.692 0.703l-1.421 2e-3c-0.38 0-0.685-0.311-0.685-0.695v-1.647c0-0.318 0.422-0.318 0.422 0v1.602h0.254z"/></g></g></g><g transform="translate(-3.3018 -3.4075)"><g transform="matrix(.087886 0 0 -.087886 -216.97 287.25)" fill-opacity="0"><path d="m0 0c-0.541 0-0.981-0.439-0.981-0.98v-7.522c0-0.541 0.44-0.98 0.981-0.98h7.521c0.541 0 0.981 0.439 0.981 0.98v7.522c0 0.541-0.44 0.98-0.981 0.98z" fill-opacity="0"/></g><g transform="matrix(.087886 0 0 -.087886 -216.58 287.37)"><path d="m0 0c1.269 0 2.296-1.027 2.296-2.295 0-1.269-1.027-2.297-2.296-2.297l-1.478 2e-3v-2.18h-1.323v6.77zm0.021-3.285c0.561 0 1.016 0.455 1.016 1.015 0 0.563-0.455 1.018-1.016 1.018l-1.499 2e-3v-2.035z"/></g></g><g transform="matrix(6.3278 0 0 6.3278 1174.7 -1521.8)"><g transform="matrix(.013889 0 0 -.013889 -220.19 285.34)" fill-opacity="0"><path d="m0 0c-0.542 0-0.982-0.439-0.982-0.98v-7.524c0-0.539 0.44-0.978 0.982-0.978h7.521c0.541 0 0.98 0.439 0.98 0.978v7.524c0 0.541-0.439 0.98-0.98 0.98z" fill-opacity="0"/></g><g transform="matrix(.013889 0 0 -.013889 -220.14 285.37)"><path d="M 0,0 C 0.377,0.01 0.674,0.323 0.663,0.697 0.654,1.076 0.341,1.37 -0.036,1.363 -0.41,1.354 -0.707,1.04 -0.699,0.664 -0.69,0.288 -0.376,-0.01 0,0" fill="#231f20"/></g><g transform="matrix(.013889 0 0 -.013889 -220.11 285.4)"><path d="m0 0-0.998 0.545-0.825 1.284c-0.133 0.165-0.34 0.287-0.576 0.284-0.178-6e-3 -0.335-0.086-0.459-0.193l-1.246-1.243c-0.041-0.043-0.069-0.098-0.079-0.157l-0.159-1.37c-2e-3 -0.014-2e-3 -0.027-3e-3 -0.042 5e-3 -0.17 0.147-0.301 0.317-0.298 0.159 3e-3 0.281 0.138 0.299 0.287l0.13 1.174 0.434 0.431-0.388-3.293-0.718-1.554c-0.022-0.054-0.044-0.13-0.042-0.203 6e-3 -0.254 0.218-0.455 0.473-0.449 0.181 5e-3 0.327 0.113 0.406 0.268l0.771 1.676c0.015 0.045 0.069 0.155 0.071 0.205l0.091 0.811 0.793-2.64c0.068-0.184 0.241-0.324 0.45-0.318 0.255 7e-3 0.457 0.217 0.451 0.472-2e-3 0.033-0.01 0.054-0.012 0.093l-1.103 3.66 0.142 1.189 0.309-0.48c0.022-0.032 0.052-0.061 0.085-0.081l1.09-0.597c0.052-0.017 0.094-0.03 0.143-0.03 0.171 5e-3 0.306 0.146 0.301 0.317-3e-3 0.106-0.061 0.201-0.148 0.252"/></g></g><g transform="matrix(6.3278 0 0 6.3278 1173.8 -1520.1)"><g transform="matrix(.013889 0 0 -.013889 -219.78 285.09)" fill-opacity="0"><path d="m0 0c-0.54 0-0.979-0.439-0.979-0.979v-7.522c0-0.541 0.439-0.981 0.979-0.981h7.522c0.541 0 0.98 0.44 0.98 0.981v7.522c0 0.54-0.439 0.979-0.98 0.979z" fill-opacity="0"/></g><g><g transform="matrix(.013889 0 0 -.013889 -219.77 285.14)"><path d="m0 0c-0.035-0.072-0.06-0.152-0.074-0.238-6e-3 -0.043-0.01-0.086-0.01-0.129l0.031-1.969-0.679-1.465c-0.024-0.043-0.041-0.093-0.049-0.146-0.037-0.242 0.129-0.467 0.371-0.504 0.187-0.029 0.367 0.066 0.453 0.224l0.748 1.602c0.016 0.037 0.029 0.076 0.035 0.119 2e-3 0.02 4e-3 0.041 4e-3 0.061l-6e-3 1.216 1.15-0.501 0.185-1.19c0.037-0.174 0.18-0.312 0.365-0.342 0.243-0.035 0.467 0.131 0.504 0.371 6e-3 0.041 6e-3 0.083 2e-3 0.122l-0.226 1.435c-0.028 0.139-0.119 0.258-0.248 0.318l-1.028 0.458 0.655 1.138 0.324-0.412c0.033-0.037 0.076-0.068 0.125-0.088l1.236-0.361c0.164-0.035 0.332 0.051 0.397 0.209 0.072 0.179-0.014 0.383-0.192 0.455-6e-3 2e-3 -0.011 4e-3 -0.017 6e-3l-1.074 0.316-0.809 0.971c-0.121 0.129-0.283 0.22-0.471 0.25-0.328 0.049-0.64-0.108-0.804-0.373z"/></g><g transform="matrix(.013889 0 0 -.013889 -219.72 285.18)"><path d="m0 0-0.078-0.59-2.127-0.517 0.02-0.366h5.188c0.183 0 0.332 0.149 0.332 0.332l-6e-3 6.993-0.711 0.166-0.408-1.838-0.683-0.287-0.605-1.696 0.575-1.297-0.162-0.498z"/></g><g transform="matrix(.013889 0 0 -.013889 -219.74 285.12)"><path d="m0 0c0.365 0 0.662 0.297 0.662 0.662s-0.297 0.662-0.662 0.662-0.662-0.297-0.662-0.662 0.297-0.662 0.662-0.662"/></g><g transform="matrix(.013889 0 0 -.013889 -219.76 285.12)"><path d="m0 0c0.051 0.09 0.021 0.207-0.07 0.258l-0.321 0.187c-0.091 0.051-0.207 0.022-0.259-0.07l-0.989-1.705c-0.051-0.09-0.021-0.205 0.071-0.258l0.322-0.185c0.09-0.053 0.205-0.022 0.258 0.068z"/></g></g></g></g></svg>
