<?xml version="1.0" encoding="UTF-8"?>
<svg width="160.02" height="80" version="1.1" viewBox="0 0 1.6668 .83333" xmlns="http://www.w3.org/2000/svg"><g transform="translate(219.53 -283.84)"><g transform="translate(1.6077 -1.0121)"><g transform="matrix(.087886 0 0 -.087886 -220.21 284.86)" fill-opacity="0"><path d="m0 0c-0.542 0-0.981-0.439-0.981-0.98v-7.524c0-0.539 0.439-0.978 0.981-0.978h7.521c0.541 0 0.98 0.439 0.98 0.978v7.524c0 0.541-0.439 0.98-0.98 0.98z" fill-opacity="0"/></g><g><g transform="matrix(.087886 0 0 -.087886 -219.87 285.02)"><path d="m0 0c0.365 0 0.66 0.297 0.66 0.662s-0.295 0.66-0.66 0.66-0.662-0.295-0.662-0.66 0.297-0.662 0.662-0.662"/></g><g transform="matrix(.087886 0 0 -.087886 -219.97 285.03)"><path d="m0 0c0.025 0.102-0.039 0.203-0.139 0.229l-0.551 0.132c-0.103 0.024-0.205-0.037-0.228-0.138l-0.463-1.916c-0.025-0.102 0.037-0.203 0.139-0.229l0.552-0.133c0.1-0.025 0.204 0.037 0.227 0.139z"/></g><g transform="matrix(.087886 0 0 -.087886 -219.75 285.63)"><path d="m0 0c0-4e-3 -2e-3 -8e-3 -2e-3 -0.01 0-0.084 0.068-0.152 0.152-0.152 0.077 0 0.141 0.059 0.151 0.133l1.109 6.017v0.012c0 0.082-0.066 0.15-0.15 0.15-0.076 0-0.135-0.058-0.151-0.132z"/></g><g transform="matrix(.087886 0 0 -.087886 -220.07 285.59)"><path d="m0 0c-6e-3 -0.031-8e-3 -0.062-8e-3 -0.094 0-0.258 0.207-0.465 0.465-0.465 0.211 0 0.389 0.141 0.445 0.332l0.799 3.307 0.762-3.287c0.049-0.203 0.232-0.352 0.449-0.352 0.258 0 0.465 0.207 0.465 0.465 0 0.035-4e-3 0.069-0.01 0.102l-1.045 4.367 0.088 0.385 0.069-0.303c0.062-0.197 0.242-0.217 0.242-0.217l1.076-0.273c0.021-4e-3 0.043-6e-3 0.064-6e-3 0.176 0 0.319 0.141 0.319 0.316 0 0.151-0.104 0.278-0.244 0.311l-0.932 0.234-0.256 1.039c-0.121 0.58-0.676 0.567-0.676 0.567-0.539 0.013-0.674-0.553-0.674-0.553z"/></g></g></g><g transform="translate(1.0792 -1.0722)"><g transform="matrix(.087886 0 0 -.087886 -220.52 284.92)" fill-opacity="0"><path d="m0 0c-0.542 0-0.982-0.441-0.982-0.982v-7.522c0-0.539 0.44-0.978 0.982-0.978h7.522c0.54 0 0.98 0.439 0.98 0.978v7.522c0 0.541-0.44 0.982-0.98 0.982z" fill-opacity="0"/></g><g transform="matrix(.087886 0 0 -.087886 -282.34 311.8)"><path d="m707.55 298.01h-0.525v6.596h0.525z"/><g transform="translate(705.16 303.39)"><path d="m0 0c0.375 0 0.644-0.309 0.7-0.477l0.459-1.511c0.092-0.325-0.321-0.459-0.42-0.143l-0.413 1.387h-0.238l0.692-2.465h-0.66v-1.924c0-0.328-0.493-0.326-0.493 0v1.936h-0.251v-1.932c0-0.332-0.495-0.332-0.495 0v1.92h-0.662l0.685 2.465h-0.227l-0.414-1.391c-0.098-0.303-0.515-0.179-0.42 0.147l0.46 1.511c0.049 0.172 0.266 0.477 0.643 0.477z"/></g><g transform="translate(704.66 303.51)"><path d="m0 0c0.296 0 0.536 0.24 0.536 0.535 0 0.297-0.24 0.537-0.536 0.537s-0.535-0.24-0.535-0.537c0-0.295 0.239-0.535 0.535-0.535"/></g><g transform="translate(709.86 303.52)"><path d="m0 0c0.296 0 0.536 0.238 0.536 0.535 0 0.295-0.24 0.535-0.536 0.535-0.295 0-0.535-0.24-0.535-0.535 0-0.297 0.24-0.535 0.535-0.535"/></g><g transform="translate(709.14 298.32)"><path d="m0 0c0-0.166 0.134-0.301 0.3-0.301s0.301 0.135 0.301 0.301v2.52h0.252v-2.52c0-0.166 0.133-0.301 0.299-0.301s0.3 0.135 0.3 0.301l2e-3 4.344h0.25v-1.602c0-0.322 0.42-0.322 0.419 0v1.637c0 0.355-0.276 0.703-0.692 0.703l-1.421 2e-3c-0.38 0-0.685-0.311-0.685-0.695v-1.647c0-0.318 0.422-0.318 0.422 0v1.602h0.254z"/></g></g></g></g></svg>
