<?xml version="1.0" encoding="UTF-8" standalone="no"?>
<!-- Created with Inkscape (http://www.inkscape.org/) -->

<svg
   xmlns:dc="http://purl.org/dc/elements/1.1/"
   xmlns:cc="http://creativecommons.org/ns#"
   xmlns:rdf="http://www.w3.org/1999/02/22-rdf-syntax-ns#"
   xmlns:svg="http://www.w3.org/2000/svg"
   xmlns="http://www.w3.org/2000/svg"
   xmlns:sodipodi="http://sodipodi.sourceforge.net/DTD/sodipodi-0.dtd"
   xmlns:inkscape="http://www.inkscape.org/namespaces/inkscape"
   width="11mm"
   height="11mm"
   viewBox="0 0 11 11"
   version="1.1"
   id="svg8"
   inkscape:version="0.92.3 (2405546, 2018-03-11)"
   sodipodi:docname="icon-bus- 2.svg">
  <defs
     id="defs2" />
  <sodipodi:namedview
     id="base"
     pagecolor="#ffffff"
     bordercolor="#666666"
     borderopacity="1.0"
     inkscape:pageopacity="0.0"
     inkscape:pageshadow="2"
     inkscape:zoom="7.919596"
     inkscape:cx="-8.7587536"
     inkscape:cy="18.786522"
     inkscape:document-units="mm"
     inkscape:current-layer="layer1"
     showgrid="false"
     inkscape:window-width="1920"
     inkscape:window-height="1019"
     inkscape:window-x="-9"
     inkscape:window-y="-9"
     inkscape:window-maximized="1"
     fit-margin-top="0"
     fit-margin-left="0"
     fit-margin-right="0"
     fit-margin-bottom="0" />
  <metadata
     id="metadata5">
    <rdf:RDF>
      <cc:Work
         rdf:about="">
        <dc:format>image/svg+xml</dc:format>
        <dc:type
           rdf:resource="http://purl.org/dc/dcmitype/StillImage" />
        <dc:title></dc:title>
      </cc:Work>
    </rdf:RDF>
  </metadata>
  <g
     inkscape:label="Layer 1"
     inkscape:groupmode="layer"
     id="layer1"
     transform="translate(-68.385156,-172.4797)">
    <path
       style="stroke-width:0.99999994"
       d="m 20.785156,8.9785156 c -6.511124,0 -11.8105466,5.3013564 -11.8105466,11.8125004 0,6.511105 5.2994226,11.810546 11.8105466,11.810546 6.511121,0 11.8125,-5.299441 11.8125,-11.810546 0,-6.511144 -5.301379,-11.8125004 -11.8125,-11.8125004 z m 0,2.0019534 c 5.43024,0 9.810547,4.38031 9.810547,9.810547 0,5.430236 -4.380307,9.810546 -9.810547,9.810546 -5.430244,0 -9.810547,-4.38031 -9.810547,-9.810546 0,-5.430237 4.380303,-9.810547 9.810547,-9.810547 z m -0.002,1.720703 c -1.455999,0 -3.405281,0.412717 -4.238281,0.761719 -0.833,0.345826 -1.384596,0.69259 -1.558594,1.558593 l -0.625,4.802735 v 6.61914 H 15.4375 v 1.039063 c 0,1.263005 1.853516,1.263005 1.853516,0 v -1.039063 h 6.984375 v 1.039063 c 0,1.263005 1.849609,1.263005 1.849609,0 v -1.039063 h 1.076172 v -6.617187 l -0.623047,-4.804688 c -0.174009,-0.866003 -0.728548,-1.212578 -1.560547,-1.558593 -0.833,-0.348851 -2.781373,-0.761719 -4.234375,-0.761719 z m -2.90625,1.0625 h 0.002 5.804688 c 0.570999,0 0.570999,1.080078 0,1.080078 h -5.804688 c -0.571296,0 -0.571849,-1.077438 -0.002,-1.080078 z m -1.367187,1.714844 H 25.0625 c 0.250016,0 0.458907,0.182832 0.503906,0.419922 l 0.509766,3.787109 a 0.51399999,0.51399999 0 0 1 -0.492188,0.644531 h -9.591796 a 0.51499997,0.51499997 0 0 1 -0.494141,-0.644531 l 0.511719,-3.787109 a 0.51199997,0.51199997 0 0 1 0.5,-0.419922 z m -0.144532,7.023437 a 0.97753949,0.97753949 0 0 1 -0.002,1.955078 0.97753949,0.97753949 0 1 1 0.002,-1.955078 z m 8.861328,0.0039 a 0.97599999,0.97599999 0 0 1 -0.02539,1.951172 0.978,0.978 0 0 1 -0.980469,-0.978515 0.97599999,0.97599999 0 0 1 1.005859,-0.972657 z"
       transform="matrix(0.26458333,0,0,0.26458333,68.385156,172.4797)"
       id="path4"
       inkscape:connector-curvature="0" />
  </g>
</svg>
