<?xml version="1.0" encoding="UTF-8" standalone="no"?>
<!-- Created with Inkscape (http://www.inkscape.org/) -->

<svg
   xmlns:dc="http://purl.org/dc/elements/1.1/"
   xmlns:cc="http://creativecommons.org/ns#"
   xmlns:rdf="http://www.w3.org/1999/02/22-rdf-syntax-ns#"
   xmlns:svg="http://www.w3.org/2000/svg"
   xmlns="http://www.w3.org/2000/svg"
   xmlns:sodipodi="http://sodipodi.sourceforge.net/DTD/sodipodi-0.dtd"
   xmlns:inkscape="http://www.inkscape.org/namespaces/inkscape"
   width="11mm"
   height="11mm"
   viewBox="0 0 11 11"
   version="1.1"
   id="svg8"
   inkscape:version="0.92.3 (2405546, 2018-03-11)"
   sodipodi:docname="icon-bus-direction 2.svg">
  <defs
     id="defs2" />
  <sodipodi:namedview
     id="base"
     pagecolor="#ffffff"
     bordercolor="#666666"
     borderopacity="1.0"
     inkscape:pageopacity="0.0"
     inkscape:pageshadow="2"
     inkscape:zoom="11.2"
     inkscape:cx="-15.33694"
     inkscape:cy="14.793215"
     inkscape:document-units="mm"
     inkscape:current-layer="layer1"
     showgrid="false"
     inkscape:window-width="1920"
     inkscape:window-height="1019"
     inkscape:window-x="-9"
     inkscape:window-y="-9"
     inkscape:window-maximized="1"
     fit-margin-top="0"
     fit-margin-left="0"
     fit-margin-right="0"
     fit-margin-bottom="0"
     showguides="true"
     inkscape:guide-bbox="true" />
  <metadata
     id="metadata5">
    <rdf:RDF>
      <cc:Work
         rdf:about="">
        <dc:format>image/svg+xml</dc:format>
        <dc:type
           rdf:resource="http://purl.org/dc/dcmitype/StillImage" />
        <dc:title />
      </cc:Work>
    </rdf:RDF>
  </metadata>
  <g
     inkscape:label="Layer 1"
     inkscape:groupmode="layer"
     id="layer1"
     transform="translate(-68.385156,-172.4797)">
    <circle
       style="opacity:1;fill:#ffffff;fill-opacity:1;stroke:#000000;stroke-width:0.5291667;stroke-linecap:butt;stroke-linejoin:round;stroke-miterlimit:4;stroke-dasharray:none;stroke-dashoffset:17.5;stroke-opacity:1"
       id="path825"
       cx="73.885155"
       cy="177.97971"
       r="2.8603778" />
    <path
       d="m 75.417094,176.45389 c -0.04604,-0.22913 -0.192617,-0.32067 -0.41275,-0.41222 -0.220398,-0.0923 -0.736071,-0.20161 -1.120511,-0.20161 -0.385233,0 -0.900641,0.10927 -1.121039,0.20161 -0.220398,0.0915 -0.366713,0.18309 -0.41275,0.41222 l -0.165365,1.27106 v 1.75101 H 72.4699 v 0.2749 c 0,0.33417 0.490273,0.33417 0.490273,0 v -0.2749 h 1.84785 v 0.2749 c 0,0.33417 0.489215,0.33417 0.489215,0 v -0.2749 h 0.284691 v -1.75075 z m -2.301875,-0.33258 h 1.536435 c 0.151077,0 0.151077,0.28575 0,0.28575 h -1.536171 c -0.151341,0 -0.151341,-0.28575 0,-0.28575 m -0.401108,2.82919 a 0.2585003,0.2585003 0 1 1 7.94e-4,-0.517 0.2585003,0.2585003 0 0 1 -7.94e-4,0.517 m 2.338388,0 a 0.2587625,0.2587625 0 0 1 -0.259292,-0.25876 0.25823333,0.25823333 0 1 1 0.259292,0.25876 m 0.1016,-1.09167 h -2.538148 a 0.13626041,0.13626041 0 0 1 -0.13044,-0.17066 l 0.135202,-1.00224 a 0.13546666,0.13546666 0 0 1 0.132292,-0.11113 h 2.263246 c 0.06615,0 0.121179,0.0484 0.133085,0.11113 l 0.134673,1.00224 a 0.13599583,0.13599583 0 0 1 -0.12991,0.17066"
       id="path4"
       inkscape:connector-curvature="0"
       style="stroke-width:0.26458332" />
    <path
       style="opacity:1;fill:#000000;fill-opacity:1;stroke:none;stroke-width:0.19930416;stroke-linecap:butt;stroke-linejoin:round;stroke-miterlimit:4;stroke-dasharray:none;stroke-dashoffset:17.5;stroke-opacity:1"
       d="m 27.269531,32.853516 c -1.93168,1.042599 -4.140194,1.636718 -6.484375,1.636718 -2.342631,0 -4.547746,-0.593451 -6.478515,-1.634765 l 2.996093,3.794922 3.484375,4.416015 3.486329,-4.416015 z"
       transform="matrix(0.26458333,0,0,0.26458333,68.385156,172.4797)"
       id="path819"
       inkscape:connector-curvature="0" />
  </g>
</svg>
