<?xml version="1.0" encoding="UTF-8" standalone="no"?>
<!-- Created with Inkscape (http://www.inkscape.org/) -->

<svg
   xmlns:dc="http://purl.org/dc/elements/1.1/"
   xmlns:cc="http://creativecommons.org/ns#"
   xmlns:rdf="http://www.w3.org/1999/02/22-rdf-syntax-ns#"
   xmlns:svg="http://www.w3.org/2000/svg"
   xmlns="http://www.w3.org/2000/svg"
   xmlns:sodipodi="http://sodipodi.sourceforge.net/DTD/sodipodi-0.dtd"
   xmlns:inkscape="http://www.inkscape.org/namespaces/inkscape"
   width="400.02335"
   height="80.001389"
   viewBox="0 0 4.16691 0.83334779"
   version="1.1"
   id="svg13741"
   inkscape:version="0.92.3 (2405546, 2018-03-11)"
   sodipodi:docname="symbols.svg">
  <defs
     id="defs13735" />
  <sodipodi:namedview
     id="base"
     pagecolor="#ffffff"
     bordercolor="#666666"
     borderopacity="1.0"
     inkscape:pageopacity="0.0"
     inkscape:pageshadow="2"
     inkscape:zoom="2.1888317"
     inkscape:cx="160.01647"
     inkscape:cy="40.001703"
     inkscape:document-units="px"
     inkscape:current-layer="layer1"
     showgrid="false"
     units="px"
     fit-margin-top="0"
     fit-margin-left="0"
     fit-margin-right="0"
     fit-margin-bottom="0"
     inkscape:window-width="1920"
     inkscape:window-height="1139"
     inkscape:window-x="-9"
     inkscape:window-y="-9"
     inkscape:window-maximized="1"
     inkscape:snap-global="false"
     showguides="true"
     inkscape:guide-bbox="true" />
  <metadata
     id="metadata13738">
    <rdf:RDF>
      <cc:Work
         rdf:about="">
        <dc:format>image/svg+xml</dc:format>
        <dc:type
           rdf:resource="http://purl.org/dc/dcmitype/StillImage" />
        <dc:title></dc:title>
      </cc:Work>
    </rdf:RDF>
  </metadata>
  <g
     inkscape:label="Layer 1"
     inkscape:groupmode="layer"
     id="layer1"
     transform="translate(220.35944,-283.84331)">
    <g
       id="g17054"
       transform="translate(2.4411931,-1.0121467)">
      <g
         style="fill:#ffffff;fill-opacity:0"
         transform="matrix(0.08788582,0,0,-0.08788582,-220.21404,284.85546)"
         id="g11204">
        <path
           inkscape:connector-curvature="0"
           id="path11206"
           style="fill:#ffffff;fill-opacity:0;fill-rule:nonzero;stroke:none"
           d="m 0,0 c -0.542,0 -0.981,-0.439 -0.981,-0.98 v -7.524 c 0,-0.539 0.439,-0.978 0.981,-0.978 h 7.521 c 0.541,0 0.98,0.439 0.98,0.978 V -0.98 C 8.501,-0.439 8.062,0 7.521,0 Z" />
      </g>
      <g
         style="fill:#000000;fill-opacity:1"
         id="g17041">
        <g
           style="fill:#000000;fill-opacity:1"
           id="g11208"
           transform="matrix(0.08788582,0,0,-0.08788582,-219.87383,285.01887)">
          <path
             d="m 0,0 c 0.365,0 0.66,0.297 0.66,0.662 0,0.365 -0.295,0.66 -0.66,0.66 -0.365,0 -0.662,-0.295 -0.662,-0.66 C -0.662,0.297 -0.365,0 0,0"
             style="fill:#000000;fill-opacity:1;fill-rule:nonzero;stroke:none"
             id="path11210"
             inkscape:connector-curvature="0" />
        </g>
        <g
           style="fill:#000000;fill-opacity:1"
           id="g11212"
           transform="matrix(0.08788582,0,0,-0.08788582,-219.97201,285.02848)">
          <path
             d="M 0,0 C 0.025,0.102 -0.039,0.203 -0.139,0.229 L -0.69,0.361 C -0.793,0.385 -0.895,0.324 -0.918,0.223 l -0.463,-1.916 c -0.025,-0.102 0.037,-0.203 0.139,-0.229 l 0.552,-0.133 c 0.1,-0.025 0.204,0.037 0.227,0.139 z"
             style="fill:#000000;fill-opacity:1;fill-rule:nonzero;stroke:none"
             id="path11214"
             inkscape:connector-curvature="0" />
        </g>
        <g
           style="fill:#000000;fill-opacity:1"
           id="g11216"
           transform="matrix(0.08788582,0,0,-0.08788582,-219.74861,285.62738)">
          <path
             d="m 0,0 c 0,-0.004 -0.002,-0.008 -0.002,-0.01 0,-0.084 0.068,-0.152 0.152,-0.152 0.077,0 0.141,0.059 0.151,0.133 L 1.41,5.988 V 6 C 1.41,6.082 1.344,6.15 1.26,6.15 1.184,6.15 1.125,6.092 1.109,6.018 Z"
             style="fill:#000000;fill-opacity:1;fill-rule:nonzero;stroke:none"
             id="path11218"
             inkscape:connector-curvature="0" />
        </g>
        <g
           style="fill:#000000;fill-opacity:1"
           id="g11220"
           transform="matrix(0.08788582,0,0,-0.08788582,-220.07294,285.5927)">
          <path
             d="m 0,0 c -0.006,-0.031 -0.008,-0.062 -0.008,-0.094 0,-0.258 0.207,-0.465 0.465,-0.465 0.211,0 0.389,0.141 0.445,0.332 L 1.701,3.08 2.463,-0.207 c 0.049,-0.203 0.232,-0.352 0.449,-0.352 0.258,0 0.465,0.207 0.465,0.465 0,0.035 -0.004,0.069 -0.01,0.102 L 2.322,4.375 2.41,4.76 2.479,4.457 C 2.541,4.26 2.721,4.24 2.721,4.24 L 3.797,3.967 C 3.818,3.963 3.84,3.961 3.861,3.961 c 0.176,0 0.319,0.141 0.319,0.316 0,0.151 -0.104,0.278 -0.244,0.311 L 3.004,4.822 2.748,5.861 C 2.627,6.441 2.072,6.428 2.072,6.428 1.533,6.441 1.398,5.875 1.398,5.875 Z"
             style="fill:#000000;fill-opacity:1;fill-rule:nonzero;stroke:none"
             id="path11222"
             inkscape:connector-curvature="0" />
        </g>
      </g>
    </g>
    <g
       id="g18179"
       transform="translate(1.0792281,-1.0722067)">
      <g
         style="fill:#ffffff;fill-opacity:0"
         transform="matrix(0.08788582,0,0,-0.08788582,-220.51894,284.91552)"
         id="g11614">
        <path
           inkscape:connector-curvature="0"
           id="path11616"
           style="fill:#ffffff;fill-opacity:0;fill-rule:nonzero;stroke:none"
           d="m 0,0 c -0.542,0 -0.982,-0.441 -0.982,-0.982 v -7.522 c 0,-0.539 0.44,-0.978 0.982,-0.978 h 7.522 c 0.54,0 0.98,0.439 0.98,0.978 v 7.522 C 8.502,-0.441 8.062,0 7.522,0 Z" />
      </g>
      <g
         style="fill:#000000;fill-opacity:1"
         transform="matrix(0.08788582,0,0,-0.08788582,-282.34446,311.80483)"
         id="g18088">
        <path
           d="m 707.552,298.006 h -0.525 v 6.596 h 0.525 z"
           style="fill:#000000;fill-opacity:1;fill-rule:nonzero;stroke:none"
           id="path11618"
           inkscape:connector-curvature="0" />
        <g
           style="fill:#000000;fill-opacity:1"
           id="g11620"
           transform="translate(705.1581,303.3948)">
          <path
             d="M 0,0 C 0.375,0 0.644,-0.309 0.7,-0.477 L 1.159,-1.988 C 1.251,-2.313 0.838,-2.447 0.739,-2.131 L 0.326,-0.744 H 0.088 L 0.78,-3.209 H 0.12 v -1.924 c 0,-0.328 -0.493,-0.326 -0.493,0 v 1.936 h -0.251 v -1.932 c 0,-0.332 -0.495,-0.332 -0.495,0 v 1.92 h -0.662 l 0.685,2.465 h -0.227 l -0.414,-1.391 c -0.098,-0.303 -0.515,-0.179 -0.42,0.147 l 0.46,1.511 C -1.648,-0.305 -1.431,0 -1.054,0 Z"
             style="fill:#000000;fill-opacity:1;fill-rule:nonzero;stroke:none"
             id="path11622"
             inkscape:connector-curvature="0" />
        </g>
        <g
           style="fill:#000000;fill-opacity:1"
           id="g11624"
           transform="translate(704.6591,303.5081)">
          <path
             d="M 0,0 C 0.296,0 0.536,0.24 0.536,0.535 0.536,0.832 0.296,1.072 0,1.072 -0.296,1.072 -0.535,0.832 -0.535,0.535 -0.535,0.24 -0.296,0 0,0"
             style="fill:#000000;fill-opacity:1;fill-rule:nonzero;stroke:none"
             id="path11626"
             inkscape:connector-curvature="0" />
        </g>
        <g
           style="fill:#000000;fill-opacity:1"
           id="g11628"
           transform="translate(709.8643,303.5179)">
          <path
             d="M 0,0 C 0.296,0 0.536,0.238 0.536,0.535 0.536,0.83 0.296,1.07 0,1.07 -0.295,1.07 -0.535,0.83 -0.535,0.535 -0.535,0.238 -0.295,0 0,0"
             style="fill:#000000;fill-opacity:1;fill-rule:nonzero;stroke:none"
             id="path11630"
             inkscape:connector-curvature="0" />
        </g>
        <g
           style="fill:#000000;fill-opacity:1"
           id="g11632"
           transform="translate(709.1386,298.3225)">
          <path
             d="m 0,0 c 0,-0.166 0.134,-0.301 0.3,-0.301 0.166,0 0.301,0.135 0.301,0.301 V 2.52 H 0.853 V 0 c 0,-0.166 0.133,-0.301 0.299,-0.301 0.166,0 0.3,0.135 0.3,0.301 l 0.002,4.344 h 0.25 V 2.742 c 0,-0.322 0.42,-0.322 0.419,0 v 1.637 c 0,0.355 -0.276,0.703 -0.692,0.703 L 0.01,5.084 c -0.38,0 -0.685,-0.311 -0.685,-0.695 V 2.742 c 0,-0.318 0.422,-0.318 0.422,0 v 1.602 h 0.254 z"
             style="fill:#000000;fill-opacity:1;fill-rule:nonzero;stroke:none"
             id="path11634"
             inkscape:connector-curvature="0" />
        </g>
      </g>
    </g>
    <g
       id="g989"
       transform="translate(-3.301771,-3.4074867)">
      <g
         style="fill:#ffffff;fill-opacity:0"
         transform="matrix(0.08788582,0,0,-0.08788582,-216.97145,287.2508)"
         id="g11176">
        <path
           inkscape:connector-curvature="0"
           id="path11178"
           style="fill:#ffffff;fill-opacity:0;fill-rule:nonzero;stroke:none"
           d="m 0,0 c -0.541,0 -0.981,-0.439 -0.981,-0.98 v -7.522 c 0,-0.541 0.44,-0.98 0.981,-0.98 h 7.521 c 0.541,0 0.981,0.439 0.981,0.98 V -0.98 C 8.502,-0.439 8.062,0 7.521,0 Z" />
      </g>
      <g
         style="fill:#000000;fill-opacity:1"
         transform="matrix(0.08788582,0,0,-0.08788582,-216.58166,287.36647)"
         id="g11180">
        <path
           inkscape:connector-curvature="0"
           id="path11182"
           style="fill:#000000;fill-opacity:1;fill-rule:nonzero;stroke:none"
           d="M 0,0 C 1.269,0 2.296,-1.027 2.296,-2.295 2.296,-3.564 1.269,-4.592 0,-4.592 L -1.478,-4.59 V -6.77 H -2.801 V 0 Z m 0.021,-3.285 c 0.561,0 1.016,0.455 1.016,1.015 0,0.563 -0.455,1.018 -1.016,1.018 l -1.499,0.002 v -2.035 z" />
      </g>
    </g>
    <g
       id="g16842"
       transform="matrix(6.3277786,0,0,6.3277786,1174.7184,-1521.7558)">
      <g
         style="fill:#ffffff;fill-opacity:0"
         transform="matrix(0.01388889,0,0,-0.01388889,-220.19174,285.34487)"
         id="g12254">
        <path
           inkscape:connector-curvature="0"
           id="path12256"
           style="fill:#ffffff;fill-opacity:0;fill-rule:nonzero;stroke:none"
           d="m 0,0 c -0.542,0 -0.982,-0.439 -0.982,-0.98 v -7.524 c 0,-0.539 0.44,-0.978 0.982,-0.978 h 7.521 c 0.541,0 0.98,0.439 0.98,0.978 V -0.98 C 8.501,-0.439 8.062,0 7.521,0 Z" />
      </g>
      <g
         transform="matrix(0.01388889,0,0,-0.01388889,-220.13811,285.37128)"
         id="g12258">
        <path
           inkscape:connector-curvature="0"
           id="path12260"
           style="fill:#231f20;fill-opacity:1;fill-rule:nonzero;stroke:none"
           d="M 0,0 C 0.377,0.01 0.674,0.323 0.663,0.697 0.654,1.076 0.341,1.37 -0.036,1.363 -0.41,1.354 -0.707,1.04 -0.699,0.664 -0.69,0.288 -0.376,-0.01 0,0" />
      </g>
      <g
         style="fill:#000000;fill-opacity:1"
         transform="matrix(0.01388889,0,0,-0.01388889,-220.10598,285.40265)"
         id="g12262">
        <path
           inkscape:connector-curvature="0"
           id="path12264"
           style="fill:#000000;fill-opacity:1;fill-rule:nonzero;stroke:none"
           d="M 0,0 -0.998,0.545 -1.823,1.829 C -1.956,1.994 -2.163,2.116 -2.399,2.113 -2.577,2.107 -2.734,2.027 -2.858,1.92 L -4.104,0.677 C -4.145,0.634 -4.173,0.579 -4.183,0.52 l -0.159,-1.37 c -0.002,-0.014 -0.002,-0.027 -0.003,-0.042 0.005,-0.17 0.147,-0.301 0.317,-0.298 0.159,0.003 0.281,0.138 0.299,0.287 l 0.13,1.174 0.434,0.431 -0.388,-3.293 -0.718,-1.554 c -0.022,-0.054 -0.044,-0.13 -0.042,-0.203 0.006,-0.254 0.218,-0.455 0.473,-0.449 0.181,0.005 0.327,0.113 0.406,0.268 l 0.771,1.676 c 0.015,0.045 0.069,0.155 0.071,0.205 l 0.091,0.811 0.793,-2.64 c 0.068,-0.184 0.241,-0.324 0.45,-0.318 0.255,0.007 0.457,0.217 0.451,0.472 -0.002,0.033 -0.01,0.054 -0.012,0.093 l -1.103,3.66 0.142,1.189 0.309,-0.48 c 0.022,-0.032 0.052,-0.061 0.085,-0.081 l 1.09,-0.597 c 0.052,-0.017 0.094,-0.03 0.143,-0.03 0.171,0.005 0.306,0.146 0.301,0.317 C 0.145,-0.146 0.087,-0.051 0,0" />
      </g>
    </g>
    <g
       id="g18005"
       transform="matrix(6.3277786,0,0,6.3277786,1173.7623,-1520.1127)">
      <g
         style="fill:#ffffff;fill-opacity:0"
         transform="matrix(0.01388889,0,0,-0.01388889,-219.77729,285.0852)"
         id="g2914">
        <path
           inkscape:connector-curvature="0"
           id="path2916"
           style="fill:#ffffff;fill-opacity:0;fill-rule:nonzero;stroke:none"
           d="m 0,0 c -0.54,0 -0.979,-0.439 -0.979,-0.979 v -7.522 c 0,-0.541 0.439,-0.981 0.979,-0.981 h 7.522 c 0.541,0 0.98,0.44 0.98,0.981 v 7.522 C 8.502,-0.439 8.063,0 7.522,0 Z" />
      </g>
      <g
         style="fill:#000000;fill-opacity:1"
         id="g17992">
        <g
           style="fill:#000000;fill-opacity:1"
           id="g2918"
           transform="matrix(0.01388889,0,0,-0.01388889,-219.76663,285.14307)">
          <path
             d="m 0,0 c -0.035,-0.072 -0.06,-0.152 -0.074,-0.238 -0.006,-0.043 -0.01,-0.086 -0.01,-0.129 l 0.031,-1.969 -0.679,-1.465 c -0.024,-0.043 -0.041,-0.093 -0.049,-0.146 -0.037,-0.242 0.129,-0.467 0.371,-0.504 0.187,-0.029 0.367,0.066 0.453,0.224 l 0.748,1.602 c 0.016,0.037 0.029,0.076 0.035,0.119 0.002,0.02 0.004,0.041 0.004,0.061 l -0.006,1.216 1.15,-0.501 0.185,-1.19 c 0.037,-0.174 0.18,-0.312 0.365,-0.342 0.243,-0.035 0.467,0.131 0.504,0.371 0.006,0.041 0.006,0.083 0.002,0.122 L 2.804,-1.334 C 2.776,-1.195 2.685,-1.076 2.556,-1.016 L 1.528,-0.558 2.183,0.58 2.507,0.168 C 2.54,0.131 2.583,0.1 2.632,0.08 L 3.868,-0.281 C 4.032,-0.316 4.2,-0.23 4.265,-0.072 4.337,0.107 4.251,0.311 4.073,0.383 4.067,0.385 4.062,0.387 4.056,0.389 L 2.982,0.705 2.173,1.676 C 2.052,1.805 1.89,1.896 1.702,1.926 1.374,1.975 1.062,1.818 0.898,1.553 Z"
             style="fill:#000000;fill-opacity:1;fill-rule:nonzero;stroke:none"
             id="path2920"
             inkscape:connector-curvature="0" />
        </g>
        <g
           style="fill:#000000;fill-opacity:1"
           id="g2922"
           transform="matrix(0.01388889,0,0,-0.01388889,-219.71737,285.18227)">
          <path
             d="m 0,0 -0.078,-0.59 -2.127,-0.517 0.02,-0.366 h 5.188 c 0.183,0 0.332,0.149 0.332,0.332 L 3.329,5.852 2.618,6.018 2.21,4.18 1.527,3.893 0.922,2.197 1.497,0.9 1.335,0.402 Z"
             style="fill:#000000;fill-opacity:1;fill-rule:nonzero;stroke:none"
             id="path2924"
             inkscape:connector-curvature="0" />
        </g>
        <g
           style="fill:#000000;fill-opacity:1"
           id="g2926"
           transform="matrix(0.01388889,0,0,-0.01388889,-219.73743,285.11513)">
          <path
             d="M 0,0 C 0.365,0 0.662,0.297 0.662,0.662 0.662,1.027 0.365,1.324 0,1.324 -0.365,1.324 -0.662,1.027 -0.662,0.662 -0.662,0.297 -0.365,0 0,0"
             style="fill:#000000;fill-opacity:1;fill-rule:nonzero;stroke:none"
             id="path2928"
             inkscape:connector-curvature="0" />
        </g>
        <g
           style="fill:#000000;fill-opacity:1"
           id="g2930"
           transform="matrix(0.01388889,0,0,-0.01388889,-219.75573,285.11657)">
          <path
             d="M 0,0 C 0.051,0.09 0.021,0.207 -0.07,0.258 L -0.391,0.445 C -0.482,0.496 -0.598,0.467 -0.65,0.375 L -1.639,-1.33 C -1.69,-1.42 -1.66,-1.535 -1.568,-1.588 l 0.322,-0.185 c 0.09,-0.053 0.205,-0.022 0.258,0.068 z"
             style="fill:#000000;fill-opacity:1;fill-rule:nonzero;stroke:none"
             id="path2932"
             inkscape:connector-curvature="0" />
        </g>
      </g>
    </g>
  </g>
</svg>
