<?xml version="1.0" encoding="UTF-8" standalone="no"?>
<!-- Created with Inkscape (http://www.inkscape.org/) -->

<svg
   xmlns:dc="http://purl.org/dc/elements/1.1/"
   xmlns:cc="http://creativecommons.org/ns#"
   xmlns:rdf="http://www.w3.org/1999/02/22-rdf-syntax-ns#"
   xmlns:svg="http://www.w3.org/2000/svg"
   xmlns="http://www.w3.org/2000/svg"
   xmlns:sodipodi="http://sodipodi.sourceforge.net/DTD/sodipodi-0.dtd"
   xmlns:inkscape="http://www.inkscape.org/namespaces/inkscape"
   width="160.01688"
   height="80"
   viewBox="0 0 1.6668425 0.83333333"
   version="1.1"
   id="svg13741"
   inkscape:version="0.92.3 (2405546, 2018-03-11)"
   sodipodi:docname="symbols.svg">
  <defs
     id="defs13735" />
  <sodipodi:namedview
     id="base"
     pagecolor="#ffffff"
     bordercolor="#666666"
     borderopacity="1.0"
     inkscape:pageopacity="0.0"
     inkscape:pageshadow="2"
     inkscape:zoom="8.34386"
     inkscape:cx="80.187638"
     inkscape:cy="32.649849"
     inkscape:document-units="px"
     inkscape:current-layer="layer1"
     showgrid="false"
     units="px"
     fit-margin-top="0"
     fit-margin-left="0"
     fit-margin-right="0"
     fit-margin-bottom="0"
     inkscape:window-width="1920"
     inkscape:window-height="1139"
     inkscape:window-x="-9"
     inkscape:window-y="-9"
     inkscape:window-maximized="1"
     inkscape:snap-global="false"
     showguides="true"
     inkscape:guide-bbox="true" />
  <metadata
     id="metadata13738">
    <rdf:RDF>
      <cc:Work
         rdf:about="">
        <dc:format>image/svg+xml</dc:format>
        <dc:type
           rdf:resource="http://purl.org/dc/dcmitype/StillImage" />
        <dc:title></dc:title>
      </cc:Work>
    </rdf:RDF>
  </metadata>
  <g
     inkscape:label="Layer 1"
     inkscape:groupmode="layer"
     id="layer1"
     transform="translate(219.52602,-283.84331)">
    <g
       id="g17054"
       transform="translate(1.6077493,-1.0121467)">
      <g
         style="fill:#ffffff;fill-opacity:0"
         transform="matrix(0.08788582,0,0,-0.08788582,-220.21404,284.85546)"
         id="g11204">
        <path
           inkscape:connector-curvature="0"
           id="path11206"
           style="fill:#ffffff;fill-opacity:0;fill-rule:nonzero;stroke:none"
           d="m 0,0 c -0.542,0 -0.981,-0.439 -0.981,-0.98 v -7.524 c 0,-0.539 0.439,-0.978 0.981,-0.978 h 7.521 c 0.541,0 0.98,0.439 0.98,0.978 V -0.98 C 8.501,-0.439 8.062,0 7.521,0 Z" />
      </g>
      <g
         style="fill:#000000;fill-opacity:1"
         id="g17041">
        <g
           style="fill:#000000;fill-opacity:1"
           id="g11208"
           transform="matrix(0.08788582,0,0,-0.08788582,-219.87383,285.01887)">
          <path
             d="m 0,0 c 0.365,0 0.66,0.297 0.66,0.662 0,0.365 -0.295,0.66 -0.66,0.66 -0.365,0 -0.662,-0.295 -0.662,-0.66 C -0.662,0.297 -0.365,0 0,0"
             style="fill:#000000;fill-opacity:1;fill-rule:nonzero;stroke:none"
             id="path11210"
             inkscape:connector-curvature="0" />
        </g>
        <g
           style="fill:#000000;fill-opacity:1"
           id="g11212"
           transform="matrix(0.08788582,0,0,-0.08788582,-219.97201,285.02848)">
          <path
             d="M 0,0 C 0.025,0.102 -0.039,0.203 -0.139,0.229 L -0.69,0.361 C -0.793,0.385 -0.895,0.324 -0.918,0.223 l -0.463,-1.916 c -0.025,-0.102 0.037,-0.203 0.139,-0.229 l 0.552,-0.133 c 0.1,-0.025 0.204,0.037 0.227,0.139 z"
             style="fill:#000000;fill-opacity:1;fill-rule:nonzero;stroke:none"
             id="path11214"
             inkscape:connector-curvature="0" />
        </g>
        <g
           style="fill:#000000;fill-opacity:1"
           id="g11216"
           transform="matrix(0.08788582,0,0,-0.08788582,-219.74861,285.62738)">
          <path
             d="m 0,0 c 0,-0.004 -0.002,-0.008 -0.002,-0.01 0,-0.084 0.068,-0.152 0.152,-0.152 0.077,0 0.141,0.059 0.151,0.133 L 1.41,5.988 V 6 C 1.41,6.082 1.344,6.15 1.26,6.15 1.184,6.15 1.125,6.092 1.109,6.018 Z"
             style="fill:#000000;fill-opacity:1;fill-rule:nonzero;stroke:none"
             id="path11218"
             inkscape:connector-curvature="0" />
        </g>
        <g
           style="fill:#000000;fill-opacity:1"
           id="g11220"
           transform="matrix(0.08788582,0,0,-0.08788582,-220.07294,285.5927)">
          <path
             d="m 0,0 c -0.006,-0.031 -0.008,-0.062 -0.008,-0.094 0,-0.258 0.207,-0.465 0.465,-0.465 0.211,0 0.389,0.141 0.445,0.332 L 1.701,3.08 2.463,-0.207 c 0.049,-0.203 0.232,-0.352 0.449,-0.352 0.258,0 0.465,0.207 0.465,0.465 0,0.035 -0.004,0.069 -0.01,0.102 L 2.322,4.375 2.41,4.76 2.479,4.457 C 2.541,4.26 2.721,4.24 2.721,4.24 L 3.797,3.967 C 3.818,3.963 3.84,3.961 3.861,3.961 c 0.176,0 0.319,0.141 0.319,0.316 0,0.151 -0.104,0.278 -0.244,0.311 L 3.004,4.822 2.748,5.861 C 2.627,6.441 2.072,6.428 2.072,6.428 1.533,6.441 1.398,5.875 1.398,5.875 Z"
             style="fill:#000000;fill-opacity:1;fill-rule:nonzero;stroke:none"
             id="path11222"
             inkscape:connector-curvature="0" />
        </g>
      </g>
    </g>
    <g
       id="g18179"
       transform="translate(1.0792281,-1.0722067)">
      <g
         style="fill:#ffffff;fill-opacity:0"
         transform="matrix(0.08788582,0,0,-0.08788582,-220.51894,284.91552)"
         id="g11614">
        <path
           inkscape:connector-curvature="0"
           id="path11616"
           style="fill:#ffffff;fill-opacity:0;fill-rule:nonzero;stroke:none"
           d="m 0,0 c -0.542,0 -0.982,-0.441 -0.982,-0.982 v -7.522 c 0,-0.539 0.44,-0.978 0.982,-0.978 h 7.522 c 0.54,0 0.98,0.439 0.98,0.978 v 7.522 C 8.502,-0.441 8.062,0 7.522,0 Z" />
      </g>
      <g
         style="fill:#000000;fill-opacity:1"
         transform="matrix(0.08788582,0,0,-0.08788582,-282.34446,311.80483)"
         id="g18088">
        <path
           d="m 707.552,298.006 h -0.525 v 6.596 h 0.525 z"
           style="fill:#000000;fill-opacity:1;fill-rule:nonzero;stroke:none"
           id="path11618"
           inkscape:connector-curvature="0" />
        <g
           style="fill:#000000;fill-opacity:1"
           id="g11620"
           transform="translate(705.1581,303.3948)">
          <path
             d="M 0,0 C 0.375,0 0.644,-0.309 0.7,-0.477 L 1.159,-1.988 C 1.251,-2.313 0.838,-2.447 0.739,-2.131 L 0.326,-0.744 H 0.088 L 0.78,-3.209 H 0.12 v -1.924 c 0,-0.328 -0.493,-0.326 -0.493,0 v 1.936 h -0.251 v -1.932 c 0,-0.332 -0.495,-0.332 -0.495,0 v 1.92 h -0.662 l 0.685,2.465 h -0.227 l -0.414,-1.391 c -0.098,-0.303 -0.515,-0.179 -0.42,0.147 l 0.46,1.511 C -1.648,-0.305 -1.431,0 -1.054,0 Z"
             style="fill:#000000;fill-opacity:1;fill-rule:nonzero;stroke:none"
             id="path11622"
             inkscape:connector-curvature="0" />
        </g>
        <g
           style="fill:#000000;fill-opacity:1"
           id="g11624"
           transform="translate(704.6591,303.5081)">
          <path
             d="M 0,0 C 0.296,0 0.536,0.24 0.536,0.535 0.536,0.832 0.296,1.072 0,1.072 -0.296,1.072 -0.535,0.832 -0.535,0.535 -0.535,0.24 -0.296,0 0,0"
             style="fill:#000000;fill-opacity:1;fill-rule:nonzero;stroke:none"
             id="path11626"
             inkscape:connector-curvature="0" />
        </g>
        <g
           style="fill:#000000;fill-opacity:1"
           id="g11628"
           transform="translate(709.8643,303.5179)">
          <path
             d="M 0,0 C 0.296,0 0.536,0.238 0.536,0.535 0.536,0.83 0.296,1.07 0,1.07 -0.295,1.07 -0.535,0.83 -0.535,0.535 -0.535,0.238 -0.295,0 0,0"
             style="fill:#000000;fill-opacity:1;fill-rule:nonzero;stroke:none"
             id="path11630"
             inkscape:connector-curvature="0" />
        </g>
        <g
           style="fill:#000000;fill-opacity:1"
           id="g11632"
           transform="translate(709.1386,298.3225)">
          <path
             d="m 0,0 c 0,-0.166 0.134,-0.301 0.3,-0.301 0.166,0 0.301,0.135 0.301,0.301 V 2.52 H 0.853 V 0 c 0,-0.166 0.133,-0.301 0.299,-0.301 0.166,0 0.3,0.135 0.3,0.301 l 0.002,4.344 h 0.25 V 2.742 c 0,-0.322 0.42,-0.322 0.419,0 v 1.637 c 0,0.355 -0.276,0.703 -0.692,0.703 L 0.01,5.084 c -0.38,0 -0.685,-0.311 -0.685,-0.695 V 2.742 c 0,-0.318 0.422,-0.318 0.422,0 v 1.602 h 0.254 z"
             style="fill:#000000;fill-opacity:1;fill-rule:nonzero;stroke:none"
             id="path11634"
             inkscape:connector-curvature="0" />
        </g>
      </g>
    </g>
  </g>
</svg>
